<svg id="logo" xmlns="http://www.w3.org/2000/svg" viewBox="0 0 517.86 305.42"><defs><style>.cls-1{fill:#fff;}</style></defs><polyline class="cls-1" points="265.86 154.24 265.86 119.95 517.86 119.95 517.86 170.35 281.61 170.35"/><polygon class="cls-1" points="517.86 50.4 314.32 50.4 265.86 0 517.86 0 517.86 50.4"/><polygon class="cls-1" points="517.86 255.02 314.32 255.02 265.86 305.42 517.86 305.42 517.86 255.02"/><path class="cls-1" d="M544.61,404.71l48.46,63h0V316.51H438c-6.32-.74-17.69-3.05-27.13-11.65-21.39-19.47-21.55-60.8-.25-80.38,9.44-8.67,20.85-11,27.27-11.79H544.61l48.46-50.4h0l-157.24,1.88c-52.51.63-94.76,45.08-94.76,99.7v3.34h0c0,55.07,42.92,99.7,95.86,99.7H544.61" transform="translate(-341.07 -162.29)"/></svg>